<svg width="30mm" height="3mm" viewBox="0 0 30 3" xmlns="http://www.w3.org/2000/svg">
  <g fill="#EAEAFD">
      <path d="M 1.4607173,2.3926136 1.2815727,2.3943362 0.96290207,1.4641625 0.64595398,2.3943362 0.46680941,2.3926136 0.16708676,1.0473068 h -0.0706243 q -0.05167632,0 -0.07406939,-0.020671 Q 0,1.0059658 0,0.97323742 0,0.94223163 0.02239307,0.9215611 0.04478614,0.90089057 0.09646246,0.90089057 h 0.39790765 q 0.0516763,0 0.0740694,0.0206705 0.0223931,0.0206705 0.0223931,0.0533989 0,0.0310058 -0.0223931,0.0516763 -0.0223931,0.020671 -0.0740694,0.020671 H 0.31005791 L 0.56671696,2.1945211 0.87505233,1.2781277 H 1.0473067 L 1.3642548,2.1945211 1.6105786,1.0473068 H 1.4279889 q -0.051676,0 -0.075792,-0.020671 -0.022393,-0.020671 -0.022393,-0.0533989 0,-0.0310058 0.022393,-0.0516763 0.022393,-0.0206705 0.075792,-0.0206705 h 0.3961852 q 0.053399,0 0.075792,0.0206705 0.022393,0.0206705 0.022393,0.0533989 0,0.0310058 -0.022393,0.0516763 -0.022393,0.020671 -0.075792,0.020671 h -0.068902 z"/>
      <path d="M 3.8619436,1.681203 H 2.3874459 q 0.037896,0.2807747 0.234266,0.4530291 0.1980926,0.1705318 0.4892025,0.1705318 0.1619191,0 0.3393412,-0.053399 0.177422,-0.053399 0.2893874,-0.1412486 0.032728,-0.025838 0.056844,-0.025838 0.027561,0 0.048231,0.022393 0.020671,0.02067 0.020671,0.049954 0,0.029283 -0.027561,0.056844 -0.082682,0.086127 -0.2945551,0.1619191 -0.2101503,0.074069 -0.4323585,0.074069 -0.3720695,0 -0.6218384,-0.2428787 -0.2480463,-0.2446012 -0.2480463,-0.5908326 0,-0.3152255 0.2325434,-0.5408788 0.234266,-0.22565324 0.5787748,-0.22565324 0.3548441,0 0.5839424,0.23254344 0.2290984,0.2308209 0.2256533,0.5994453 z M 3.7155273,1.5347868 Q 3.6724637,1.2953531 3.4881515,1.1454918 3.3055619,0.99563049 3.0523479,0.99563049 q -0.253214,0 -0.4358036,0.14813881 -0.1825897,0.1481388 -0.2273758,0.3910175 z"/>
      <path d="M 7.729055,2.3926136 V 2.1841858 Q 7.4138295,2.4494576 7.0555403,2.4494576 6.7954362,2.4494576 6.64902,2.3185443 6.5026037,2.1859084 6.5026037,1.994706 q 0,-0.2101504 0.1929249,-0.3669019 0.192925,-0.1567515 0.5632719,-0.1567515 0.099908,0 0.2170406,0.01378 0.117133,0.012058 0.2532139,0.039619 v -0.234266 q 0,-0.1188555 -0.1102428,-0.2067053 -0.1102428,-0.0878497 -0.3307284,-0.0878497 -0.1688093,0 -0.4736996,0.098185 -0.055121,0.017225 -0.070624,0.017225 -0.027561,0 -0.048231,-0.020671 -0.018948,-0.020671 -0.018948,-0.051676 0,-0.029283 0.017225,-0.0465087 0.024116,-0.0258382 0.1946475,-0.0706243 0.2687168,-0.0723468 0.4065203,-0.0723468 0.2738845,0 0.427191,0.13608097 Q 7.8754713,1.1196537 7.8754713,1.2901855 V 2.24792 h 0.1929249 q 0.053399,0 0.075792,0.020671 0.022393,0.018948 0.022393,0.051676 0,0.031006 -0.022393,0.051676 -0.022393,0.02067 -0.075792,0.02067 z m 0,-0.7200233 Q 7.6274249,1.643307 7.513737,1.6295267 q -0.1136879,-0.01378 -0.2394336,-0.01378 -0.3152255,0 -0.4926476,0.136081 -0.1343584,0.1016301 -0.1343584,0.2428787 0,0.1309133 0.1016301,0.2204856 0.1033526,0.089572 0.2997227,0.089572 0.1877573,0 0.3479538,-0.074069 0.1619192,-0.075792 0.332451,-0.2394336 z"/>
      <path d="M 9.2569513,0.90089057 V 1.2660699 q 0.2824972,-0.2549365 0.4220233,-0.32728336 0.1412486,-0.0740694 0.2601041,-0.0740694 0.1291913,0 0.2394333,0.0878497 0.111966,0.0861272 0.111966,0.13091331 0,0.032728 -0.02239,0.055121 -0.02067,0.020671 -0.0534,0.020671 -0.01723,0 -0.02928,-0.00517 -0.01206,-0.00689 -0.04479,-0.039619 -0.06029,-0.060289 -0.105075,-0.082682 -0.044786,-0.022393 -0.08785,-0.022393 -0.09474,0 -0.2290983,0.075792 -0.1326359,0.075792 -0.4616418,0.3703469 V 2.24792 h 0.6407863 q 0.053399,0 0.075792,0.020671 0.022393,0.018948 0.022393,0.051676 0,0.031006 -0.022393,0.051676 -0.022393,0.02067 -0.075792,0.02067 H 8.7625812 q -0.051676,0 -0.074069,-0.018948 -0.022393,-0.020671 -0.022393,-0.051676 0,-0.029283 0.02067,-0.048231 0.022393,-0.02067 0.075792,-0.02067 H 9.1122576 V 1.0473068 H 8.8452633 q -0.051676,0 -0.074069,-0.020671 -0.022393,-0.020671 -0.022393,-0.0533989 0,-0.0310058 0.020671,-0.0516763 0.022393,-0.0206705 0.075792,-0.0206705 z"/>
      <path d="m 12.329969,1.681203 h -1.474497 q 0.0379,0.2807747 0.234266,0.4530291 0.198092,0.1705318 0.489202,0.1705318 0.161919,0 0.339341,-0.053399 0.177423,-0.053399 0.289388,-0.1412486 0.03273,-0.025838 0.05684,-0.025838 0.02756,0 0.04823,0.022393 0.02067,0.02067 0.02067,0.049954 0,0.029283 -0.02756,0.056844 -0.08268,0.086127 -0.294555,0.1619191 -0.210151,0.074069 -0.432359,0.074069 -0.372069,0 -0.621838,-0.2428787 -0.248046,-0.2446012 -0.248046,-0.5908326 0,-0.3152255 0.232543,-0.5408788 0.234266,-0.22565324 0.578775,-0.22565324 0.354844,0 0.583942,0.23254344 0.229099,0.2308209 0.225653,0.5994453 z M 12.183553,1.5347868 Q 12.14049,1.2953531 11.956177,1.1454918 11.773588,0.99563049 11.520374,0.99563049 q -0.253214,0 -0.435804,0.14813881 -0.182589,0.1481388 -0.227376,0.3910175 z"/>
      <path d="m 14.014618,1.3883705 1.56407,-0.87160723 q 0.0379,-0.0206705 0.05684,-0.0206705 0.02928,0 0.04995,0.0223931 0.02239,0.0206705 0.02239,0.0499538 0,0.0430636 -0.05857,0.0757919 l -1.340139,0.74413898 1.338417,0.744139 q 0.05857,0.032728 0.05857,0.075792 0,0.029283 -0.02239,0.051676 -0.02067,0.020671 -0.04995,0.020671 -0.01895,0 -0.05684,-0.020671 z" fill="#696D97"/>
      <path d="M 17.730144,0.23082097 V 2.24792 h 0.192925 q 0.0534,0 0.07579,0.020671 0.02239,0.018948 0.02239,0.051676 0,0.031006 -0.02239,0.051676 -0.02239,0.02067 -0.07579,0.02067 H 17.583728 V 2.1049488 q -0.251491,0.3445088 -0.639064,0.3445088 -0.19637,0 -0.377237,-0.1033526 -0.179145,-0.1050752 -0.28422,-0.2980001 -0.103352,-0.192925 -0.103352,-0.3979077 0,-0.2067053 0.103352,-0.3979077 0.105075,-0.1929249 0.28422,-0.29800006 0.180867,-0.10507518 0.37896,-0.10507518 0.378959,0 0.637341,0.34450874 V 0.37723721 h -0.192925 q -0.0534,0 -0.07579,-0.0206705 -0.02239,-0.0206705 -0.02239,-0.0533989 0,-0.0310058 0.02239,-0.0516763 0.02239,-0.0206705 0.07579,-0.0206705 z M 17.583728,1.6501972 q 0,-0.275607 -0.186035,-0.4650869 -0.186035,-0.18947981 -0.442694,-0.18947981 -0.258381,0 -0.444416,0.18947981 -0.186035,0.1894799 -0.186035,0.4650869 0,0.2738845 0.186035,0.4650869 0.186035,0.1894798 0.444416,0.1894798 0.256659,0 0.442694,-0.1894798 0.186035,-0.1912024 0.186035,-0.4650869 z"/>
      <path d="m 19.921222,1.681203 h -1.474498 q 0.0379,0.2807747 0.234266,0.4530291 0.198093,0.1705318 0.489203,0.1705318 0.161919,0 0.339341,-0.053399 0.177422,-0.053399 0.289387,-0.1412486 0.03273,-0.025838 0.05684,-0.025838 0.02756,0 0.04823,0.022393 0.02067,0.02067 0.02067,0.049954 0,0.029283 -0.02756,0.056844 -0.08268,0.086127 -0.294555,0.1619191 -0.21015,0.074069 -0.432358,0.074069 -0.37207,0 -0.621839,-0.2428787 -0.248046,-0.2446012 -0.248046,-0.5908326 0,-0.3152255 0.232543,-0.5408788 0.234266,-0.22565324 0.578775,-0.22565324 0.354844,0 0.583943,0.23254344 0.229098,0.2308209 0.225653,0.5994453 z M 19.774806,1.5347868 Q 19.731742,1.2953531 19.54743,1.1454918 19.36484,0.99563049 19.111626,0.99563049 q -0.253214,0 -0.435803,0.14813881 -0.18259,0.1481388 -0.227376,0.3910175 z"/>
      <path d="M 21.381939,2.3926136 H 21.137338 L 20.54306,1.0473068 h -0.148139 q -0.05168,0 -0.07407,-0.020671 -0.02239,-0.020671 -0.02239,-0.0533989 0,-0.0310058 0.02239,-0.0516763 0.02239,-0.0206705 0.07407,-0.0206705 h 0.542602 q 0.05168,0 0.07407,0.0206705 0.02239,0.0206705 0.02239,0.0533989 0,0.0310058 -0.02239,0.0516763 -0.02239,0.020671 -0.07407,0.020671 H 20.698089 L 21.228632,2.24792 h 0.06373 l 0.520208,-1.2006132 h -0.241156 q -0.05168,0 -0.07407,-0.020671 -0.02239,-0.020671 -0.02239,-0.0533989 0,-0.0310058 0.02239,-0.0516763 0.02239,-0.0206705 0.07407,-0.0206705 h 0.544324 q 0.0534,0 0.07407,0.0206705 0.02239,0.0206705 0.02239,0.0533989 0,0.0310058 -0.02239,0.0516763 -0.02067,0.020671 -0.07407,0.020671 h -0.146417 z"/>
      <path d="m 23.850344,0.99563049 q 0,-0.0499538 0.02067,-0.0723468 0.02067,-0.0223931 0.05168,-0.0223931 0.03273,0 0.0534,0.0223931 0.02067,0.0223931 0.02067,0.0757919 V 1.2471219 q 0,0.051676 -0.02067,0.074069 -0.02067,0.022393 -0.0534,0.022393 -0.02928,0 -0.04995,-0.018948 -0.01895,-0.018948 -0.02239,-0.062012 -0.01034,-0.1033526 -0.106798,-0.1705318 -0.141248,-0.0964625 -0.373792,-0.0964625 -0.242878,0 -0.377237,0.098185 -0.10163,0.074069 -0.10163,0.1653642 0,0.1033527 0.120578,0.1722544 0.08268,0.048231 0.313503,0.074069 0.301445,0.032728 0.418578,0.074069 0.167087,0.060289 0.248047,0.1670868 0.08268,0.1067977 0.08268,0.2308209 0,0.1843122 -0.177422,0.3290059 -0.177422,0.1429711 -0.520208,0.1429711 -0.342787,0 -0.56155,-0.1739769 0,0.058566 -0.0069,0.075792 -0.0069,0.017225 -0.02584,0.029283 -0.01723,0.012058 -0.03962,0.012058 -0.03101,0 -0.05168,-0.022393 -0.02067,-0.022393 -0.02067,-0.074069 V 1.9981511 q 0,-0.051676 0.01895,-0.074069 0.02067,-0.022393 0.0534,-0.022393 0.03101,0 0.05168,0.022393 0.02239,0.020671 0.02239,0.056844 0,0.079237 0.03962,0.1326359 0.06029,0.082682 0.191203,0.1378035 0.132636,0.053399 0.323838,0.053399 0.282497,0 0.420301,-0.1050752 0.137803,-0.1050752 0.137803,-0.2222081 0,-0.1343585 -0.139526,-0.215318 -0.141248,-0.08096 -0.411688,-0.1085203 -0.268717,-0.027561 -0.38585,-0.072347 -0.117133,-0.044786 -0.182589,-0.1343584 -0.06546,-0.089572 -0.06546,-0.1929249 0,-0.1860348 0.18259,-0.29455503 0.182589,-0.11024281 0.435803,-0.11024281 0.299723,0 0.48748,0.14641623 z"/>
      <path d="m 26.139605,0.12574579 -1.16444,2.49424371 q -0.02928,0.063734 -0.07579,0.063734 -0.02928,0 -0.05168,-0.022393 -0.02067,-0.020671 -0.02067,-0.046509 0,-0.020671 0.01723,-0.056844 L 26.006969,0.06373421 Q 26.025917,0.0241157 26.043142,0.01205789 26.060368,8.0559403e-8 26.084483,8.0559403e-8 q 0.02928,0 0.04995,0.0223930694406 0.02239,0.02067053 0.02239,0.04650869 0,0.01894798 -0.01722,0.05684395 z" fill="#696D97"/>
      <path d="m 28.496045,1.3883705 -1.56407,0.8716073 q -0.0379,0.020671 -0.05684,0.020671 -0.02928,0 -0.05168,-0.020671 -0.02067,-0.022393 -0.02067,-0.051676 0,-0.043064 0.05857,-0.075792 L 28.20149,1.3883705 26.863073,0.64423152 q -0.05857,-0.0327283 -0.05857,-0.0757919 0,-0.0292832 0.02067,-0.0499538 0.02239,-0.0223931 0.05168,-0.0223931 0.01895,0 0.05684,0.0206705 z" fill="#696D97"/>
  </g>
</svg>
